<mxfile host="app.diagrams.net" agent="Mozilla/5.0 (Windows NT 10.0; Win64; x64) AppleWebKit/537.36 (KHTML, like Gecko) Chrome/131.0.0.0 Safari/537.36" version="24.8.6">
  <diagram name="Page-1" id="DNe7bdjcsITiFmNubsdb">
    <mxGraphModel dx="2266" dy="818" grid="1" gridSize="10" guides="1" tooltips="1" connect="1" arrows="1" fold="1" page="1" pageScale="1" pageWidth="1400" pageHeight="850" math="0" shadow="0">
      <root>
        <mxCell id="0" />
        <mxCell id="1" parent="0" />
        <mxCell id="rYqSU0_YD1WcTbU8GYVV-1" value="Enrolled" style="rounded=1;whiteSpace=wrap;html=1;" vertex="1" parent="1">
          <mxGeometry x="180" y="300" width="120" height="60" as="geometry" />
        </mxCell>
        <mxCell id="rYqSU0_YD1WcTbU8GYVV-2" value="" style="ellipse;html=1;shape=startState;fillColor=#000000;strokeColor=#000000;" vertex="1" parent="1">
          <mxGeometry y="315" width="30" height="30" as="geometry" />
        </mxCell>
        <mxCell id="rYqSU0_YD1WcTbU8GYVV-3" value="" style="edgeStyle=orthogonalEdgeStyle;html=1;verticalAlign=bottom;endArrow=open;endSize=8;strokeColor=#000000;rounded=0;entryX=0;entryY=0.5;entryDx=0;entryDy=0;" edge="1" parent="1" target="rYqSU0_YD1WcTbU8GYVV-1">
          <mxGeometry relative="1" as="geometry">
            <mxPoint x="65" y="255" as="targetPoint" />
            <mxPoint x="30" y="330" as="sourcePoint" />
            <Array as="points">
              <mxPoint x="60" y="330" />
              <mxPoint x="60" y="330" />
            </Array>
          </mxGeometry>
        </mxCell>
        <mxCell id="rYqSU0_YD1WcTbU8GYVV-29" value="Create Account" style="edgeLabel;html=1;align=center;verticalAlign=middle;resizable=0;points=[];" vertex="1" connectable="0" parent="rYqSU0_YD1WcTbU8GYVV-3">
          <mxGeometry x="-0.1636" y="-4" relative="1" as="geometry">
            <mxPoint as="offset" />
          </mxGeometry>
        </mxCell>
        <mxCell id="rYqSU0_YD1WcTbU8GYVV-5" value="Logged out" style="rounded=1;whiteSpace=wrap;html=1;" vertex="1" parent="1">
          <mxGeometry x="460" y="520" width="120" height="60" as="geometry" />
        </mxCell>
        <mxCell id="rYqSU0_YD1WcTbU8GYVV-8" value="Logged In" style="rounded=1;whiteSpace=wrap;html=1;" vertex="1" parent="1">
          <mxGeometry x="460" y="300" width="120" height="60" as="geometry" />
        </mxCell>
        <mxCell id="rYqSU0_YD1WcTbU8GYVV-28" value="&lt;font style=&quot;font-size: 20px;&quot;&gt;State Transition Diagram: User&lt;/font&gt;" style="text;html=1;align=center;verticalAlign=middle;whiteSpace=wrap;rounded=0;" vertex="1" parent="1">
          <mxGeometry x="310" y="90" width="250" height="50" as="geometry" />
        </mxCell>
        <mxCell id="rYqSU0_YD1WcTbU8GYVV-38" value="" style="edgeStyle=orthogonalEdgeStyle;html=1;verticalAlign=bottom;endArrow=open;endSize=8;strokeColor=#000000;rounded=0;entryX=0;entryY=0.5;entryDx=0;entryDy=0;exitX=1;exitY=0.5;exitDx=0;exitDy=0;" edge="1" parent="1" source="rYqSU0_YD1WcTbU8GYVV-1" target="rYqSU0_YD1WcTbU8GYVV-8">
          <mxGeometry relative="1" as="geometry">
            <mxPoint x="410" y="170" as="targetPoint" />
            <mxPoint x="260" y="170" as="sourcePoint" />
            <Array as="points">
              <mxPoint x="430" y="330" />
              <mxPoint x="430" y="330" />
            </Array>
          </mxGeometry>
        </mxCell>
        <mxCell id="rYqSU0_YD1WcTbU8GYVV-39" value="Login to account" style="edgeLabel;html=1;align=center;verticalAlign=middle;resizable=0;points=[];" vertex="1" connectable="0" parent="rYqSU0_YD1WcTbU8GYVV-38">
          <mxGeometry x="-0.1636" y="-4" relative="1" as="geometry">
            <mxPoint x="13" y="-4" as="offset" />
          </mxGeometry>
        </mxCell>
        <mxCell id="rYqSU0_YD1WcTbU8GYVV-56" value="Registered" style="rounded=1;whiteSpace=wrap;html=1;" vertex="1" parent="1">
          <mxGeometry x="740" y="300" width="120" height="60" as="geometry" />
        </mxCell>
        <mxCell id="rYqSU0_YD1WcTbU8GYVV-57" value="" style="edgeStyle=orthogonalEdgeStyle;html=1;verticalAlign=bottom;endArrow=open;endSize=8;strokeColor=#000000;rounded=0;entryX=0;entryY=0.5;entryDx=0;entryDy=0;exitX=1;exitY=0.5;exitDx=0;exitDy=0;" edge="1" parent="1" source="rYqSU0_YD1WcTbU8GYVV-8" target="rYqSU0_YD1WcTbU8GYVV-56">
          <mxGeometry relative="1" as="geometry">
            <mxPoint x="740" y="329.5" as="targetPoint" />
            <mxPoint x="580" y="329.5" as="sourcePoint" />
            <Array as="points" />
          </mxGeometry>
        </mxCell>
        <mxCell id="rYqSU0_YD1WcTbU8GYVV-58" value="Register" style="edgeLabel;html=1;align=center;verticalAlign=middle;resizable=0;points=[];" vertex="1" connectable="0" parent="rYqSU0_YD1WcTbU8GYVV-57">
          <mxGeometry x="-0.1636" y="-4" relative="1" as="geometry">
            <mxPoint x="13" y="-4" as="offset" />
          </mxGeometry>
        </mxCell>
        <mxCell id="rYqSU0_YD1WcTbU8GYVV-59" value="" style="edgeStyle=orthogonalEdgeStyle;html=1;verticalAlign=bottom;endArrow=open;endSize=8;strokeColor=#000000;rounded=0;entryX=0;entryY=0;entryDx=0;entryDy=0;exitX=0;exitY=1;exitDx=0;exitDy=0;" edge="1" parent="1" source="rYqSU0_YD1WcTbU8GYVV-8" target="rYqSU0_YD1WcTbU8GYVV-5">
          <mxGeometry relative="1" as="geometry">
            <mxPoint x="450" y="550" as="targetPoint" />
            <mxPoint x="450" y="390" as="sourcePoint" />
            <Array as="points">
              <mxPoint x="460" y="440" />
              <mxPoint x="460" y="440" />
            </Array>
          </mxGeometry>
        </mxCell>
        <mxCell id="rYqSU0_YD1WcTbU8GYVV-60" value="Logout of account" style="edgeLabel;html=1;align=center;verticalAlign=middle;resizable=0;points=[];" vertex="1" connectable="0" parent="rYqSU0_YD1WcTbU8GYVV-59">
          <mxGeometry x="0.0588" y="-2" relative="1" as="geometry">
            <mxPoint x="2" y="5" as="offset" />
          </mxGeometry>
        </mxCell>
        <mxCell id="rYqSU0_YD1WcTbU8GYVV-61" value="" style="edgeStyle=orthogonalEdgeStyle;html=1;verticalAlign=bottom;endArrow=open;endSize=8;strokeColor=#000000;rounded=0;entryX=1;entryY=1;entryDx=0;entryDy=0;exitX=1;exitY=0;exitDx=0;exitDy=0;" edge="1" parent="1" source="rYqSU0_YD1WcTbU8GYVV-5" target="rYqSU0_YD1WcTbU8GYVV-8">
          <mxGeometry relative="1" as="geometry">
            <mxPoint x="680" y="420" as="targetPoint" />
            <mxPoint x="680" y="750" as="sourcePoint" />
            <Array as="points">
              <mxPoint x="580" y="430" />
              <mxPoint x="580" y="430" />
            </Array>
          </mxGeometry>
        </mxCell>
        <mxCell id="rYqSU0_YD1WcTbU8GYVV-62" value="Login to account" style="edgeLabel;html=1;align=center;verticalAlign=middle;resizable=0;points=[];" vertex="1" connectable="0" parent="rYqSU0_YD1WcTbU8GYVV-61">
          <mxGeometry x="0.0588" y="-2" relative="1" as="geometry">
            <mxPoint y="-28" as="offset" />
          </mxGeometry>
        </mxCell>
        <mxCell id="rYqSU0_YD1WcTbU8GYVV-64" value="" style="ellipse;html=1;shape=endState;fillColor=#000000;strokeColor=#000000;" vertex="1" parent="1">
          <mxGeometry x="505" y="180" width="30" height="30" as="geometry" />
        </mxCell>
        <mxCell id="rYqSU0_YD1WcTbU8GYVV-65" value="" style="edgeStyle=orthogonalEdgeStyle;html=1;verticalAlign=bottom;endArrow=open;endSize=8;strokeColor=#000000;rounded=0;exitX=0.5;exitY=0;exitDx=0;exitDy=0;entryX=0.5;entryY=1;entryDx=0;entryDy=0;" edge="1" parent="1">
          <mxGeometry relative="1" as="geometry">
            <mxPoint x="519.5" y="210" as="targetPoint" />
            <mxPoint x="519.5" y="300" as="sourcePoint" />
            <Array as="points">
              <mxPoint x="519.5" y="260" />
              <mxPoint x="519.5" y="260" />
            </Array>
          </mxGeometry>
        </mxCell>
        <mxCell id="rYqSU0_YD1WcTbU8GYVV-66" value="Delete Account" style="edgeLabel;html=1;align=center;verticalAlign=middle;resizable=0;points=[];" vertex="1" connectable="0" parent="rYqSU0_YD1WcTbU8GYVV-65">
          <mxGeometry x="0.0588" y="-2" relative="1" as="geometry">
            <mxPoint x="-1" y="-2" as="offset" />
          </mxGeometry>
        </mxCell>
      </root>
    </mxGraphModel>
  </diagram>
</mxfile>
